<?xml version='1.0' encoding='utf-8'?>
<svg xmlns="http://www.w3.org/2000/svg" xmlns:xlink="http://www.w3.org/1999/xlink" viewBox="0,0,320,223" style="enable-background:new 0 0 320 223;" version="1.1">
  <defs />
  <g id="layer0">
    <path d="M104.945,209.072C109.248,208.36 107.507,206.106 105.377,204.101C103.247,202.096 100.807,200.355 104.023,200.087C106.664,198.769 110.046,198.784 111.979,199.497C113.912,200.211 114.369,201.444 110.996,202.91C118.785,200.284 123.344,203.689 133.976,204.087C137.755,206.369 147.125,202.805 153.023,204.087C151.493,202.414 153.911,201.342 156.375,200.475C158.838,199.608 161.36,198.776 160.036,197.917C157.756,197.487 149.652,199.414 147.977,200.913C140.591,198.817 138.612,205.193 132.031,200.915C138.925,200.469 145.934,197.285 152.027,198.086C160.021,188.985 171.228,204.708 178.023,201.087L177.91,201C187.285,212.469 178.434,198.043 188.985,201.089C196.62,201.5 204.369,200.412 209.001,199.09C211.05,199.622 214.464,198.906 216.39,198.044C218.317,197.182 218.758,195.994 215.003,195.91C210.472,195.741 204.128,196.957 200.842,197.106C197.556,197.256 197.365,196.512 205.04,192.081C211.088,189.744 219.705,188.544 224.137,187.65C228.569,186.756 228.782,185.995 218.005,184.91L218.09,185C218.55,184.638 213.743,183.67 210.259,182.82C206.775,181.971 204.562,181.322 210.038,181.082C210.966,179.422 218.005,178.625 221.017,181.089C224.09,173.29 214.534,183.333 216.081,175.039C224.462,176.966 233.435,179.583 241.031,181.085C242.259,178.428 236.406,177.735 230.678,176.388C224.951,175.042 219.381,173.022 221.064,167.064C219.313,167.853 218.888,166.652 218.975,165.507C219.063,164.363 219.535,163.276 219.937,164.065L220,164L220.91,167C226.167,169.159 229.268,172.662 233.077,167.048C232.128,161.704 223.25,164.985 229.048,157.077C222.341,157.518 229.596,154.343 228.927,156.947C233.829,155.531 237.827,156.863 240.58,157.939C243.333,159.015 245.005,159.893 245.09,158.004C242.755,154.197 238.309,152.846 236.193,151.664C234.078,150.482 234.238,149.547 241.037,146.083C251.847,142.182 247.116,142.671 247.09,137.999C255.444,131.161 244.309,128.28 255.041,128.081C254.336,123.721 260.588,123.367 264.41,123.276C268.231,123.184 269.625,123.194 259.044,119.921C256.003,116.377 252.13,121.412 248.035,121.917C248.898,118.979 256.115,115.299 259.975,114.087C261.157,116.07 263.018,114.859 264.86,113.142C266.701,111.426 268.58,109.203 270.032,109.085C269.045,108.215 265.77,108.371 263.399,108.63C261.029,108.888 259.57,109.245 262.038,108.082C274.28,102.639 262.295,99.4319 271.993,99.0902C278.987,100.525 273.199,111.643 282.064,102.064C283.797,100.62 287.094,99.2519 289.693,97.6719C292.293,96.092 294.206,94.1877 293.076,91.9513C297.983,88.977 294.21,86.2508 302.018,85.0887C308.184,83.4974 310.758,82.0633 312.089,74.0151C314.543,66.8698 311.48,69.567 308.408,71.995C305.335,74.4229 302.253,76.5854 304.089,68.0189C305.068,62.8841 299.262,59.2702 296.07,55.9423C297.2,52.4154 291.8,48.4016 291.088,44.9798C289.227,42.5271 286.373,36.3301 283.541,31.7333C280.71,27.1366 277.731,24.1223 275.918,27.9619C274.338,32.2125 290.268,45.5746 287.919,54.9595L288.09,55C284.824,51.8362 277.466,49.5225 272.651,49.7017C267.836,49.881 265.433,52.6345 271.96,59.0811L272.09,59C266.811,57.0302 264.187,56.6654 261.012,61.9103C261.481,58.442 259.363,58.1564 257.458,58.8781C255.554,59.5998 253.865,61.5081 255.014,62.0895C250.823,57.6824 241.67,56.659 236.047,54.9229C237.508,52.246 237.45,50.3188 236.546,49.3925C235.643,48.4661 233.853,48.5273 232.005,49.9097C228.79,46.8068 222.392,44.6542 218.997,45.9095C217.345,45.4172 214.595,44.4541 212.363,43.4667C210.131,42.4794 208.488,41.6185 209.068,41.0602C211.703,34.7568 205.74,37.7015 205.053,36.9263C177.112,31.2358 166.081,24.4845 144.001,23.9095L144.091,24C135.016,20.9832 125.52,23.0337 116.967,22.9159C113.914,27.0761 106.055,25.5532 100.966,28.916C96.4181,29.448 92.4962,28.313 89.9728,30.9137C87.0891,30.0747 88.6575,31.0885 90.1762,32.2257C91.6948,33.3629 93.2099,34.6215 90.019,34.9115C72.6619,24.3907 62.7074,63.6066 40.01,46.9101C43.7952,48.6266 46.532,50.7715 47.3761,52.8528C48.2202,54.9341 47.1621,56.9513 43.0006,58.9095C38.3413,56.641 36.3729,60.0035 36.4741,62.9551C36.5752,65.9067 38.8059,68.605 42.0606,65.0672C43.6216,64.2009 46.1506,61.8466 48.1566,60.6309C50.1627,59.4152 51.4994,59.2423 50.9142,62.9713C44.6754,62.5975 44.5342,70.1555 39.9737,70.9134C36.7504,72.4734 35.7506,75.1283 36.2113,76.5081C36.672,77.8879 38.6877,78.1387 41.0683,75.0594C45.1409,71.8886 45.4958,72.6898 44.8573,74.6767C44.2188,76.6635 42.4381,79.7354 41.9194,80.9588C38.8777,83.277 34.9981,85.4804 32.9361,87.6383C30.8742,89.7961 30.6639,92.0272 34.9534,94.0776C30.2072,98.1603 22.5578,97.2325 19.9334,99.9387C17.2602,103.443 19.6839,104.517 22.1662,105.103C24.6484,105.689 27.2512,105.758 24.9954,107.91C29.2035,104.614 30.601,104.741 30.7559,106.303C30.9109,107.866 29.8074,110.713 29.9153,112.08C32.6169,114.44 29.9446,119.961 31.585,123.466C29.3084,125.774 33.4977,127.864 36.8154,127.752C40.1332,127.64 42.7253,125.237 39.0012,118.915C41.4327,119.035 43.4938,123.771 45.1602,127.929C46.8266,132.088 48.1478,135.67 49.9151,132.919C48.2091,145.955 59.8357,135.579 55.005,145.908C55.1158,146.873 56.7554,148.502 58.2307,149.999C59.706,151.495 60.9998,152.871 60.04,153.08C60.0011,157.59 66.4454,157.025 67.7264,159.689C69.0073,162.353 64.9977,168.3 73.9329,170.077C77.783,175.016 80.8264,172.233 81.8444,167.89C82.8624,163.547 81.9764,157.777 79.9422,154.076C82.7678,152.406 82.2908,154.73 81.8681,157.241C81.4454,159.753 81.1574,162.513 84.9798,161.089C89.7685,159.427 96.2508,165.52 99.0191,159.91C98.0839,157.91 92.1778,157.455 88.3647,156.418C84.5517,155.38 82.9949,153.694 92.9107,149.085C103.42,144.959 102.617,154.278 107.032,145.961C109.533,149.778 116.943,151.669 122.566,152.6C128.188,153.532 132.213,153.531 128.999,156.09L129.09,156C128.914,154.063 130.864,153.581 132.858,153.457C134.852,153.333 136.883,153.566 136.067,152.037C140.643,151.534 141.429,154.778 143.121,157.038C144.813,159.298 147.411,160.579 154.09,155.002C156.363,155.169 153.324,157.791 154.784,158.611C156.243,159.431 162.311,158.379 162.004,161.003C164.185,159.197 168.237,157.104 171.305,155.515C174.373,153.926 176.555,152.866 175.029,154.07C178.416,151.295 180.627,153.035 183.102,154.641C185.577,156.247 188.387,157.634 193.949,154.995C195.493,152.404 185.454,153.678 190.454,150.989C194.764,150.155 197.987,153.758 200.609,155.568C203.232,157.379 205.426,157.536 209.012,151.989C208.648,149.067 203.811,151.729 200.281,152.927C200.281,153.437 198.6,154.142 197.5,154.494C195.546,155.12 195.544,155.159 197.411,156.207C198.788,156.98 199.833,156.961 201.148,156.14C203.634,154.587 204.042,154.702 203.321,156.75C202.819,158.179 202.953,158.27 204.053,157.25C204.794,156.562 206.505,156 207.855,156ZM232.391,131.423C232.692,130.64 233.883,130 235.04,130C236.197,130 237.791,129.352 238.583,128.559C239.376,127.767 242.032,126.818 244.487,126.45L248.95,125.78L246.73,123.983C245.509,122.994 244.058,122.468 243.505,122.814C242.952,123.16 241.87,123.539 241.1,123.655C240.33,123.772 239.394,124.362 239.02,124.967C238.646,125.573 237.675,125.812 236.862,125.5C236.048,125.188 234.328,125.848 233.039,126.967C231.749,128.085 230.425,129.007 230.097,129.015C229.769,129.024 228.854,129.439 228.064,129.939C226.9,130.676 226.867,131.134 227.887,132.364C229.295,134.061 231.561,133.587 232.391,131.423ZM225.5,129.554C232.444,127.802 231.003,125.681 221.75,124.033C218.479,123.451 218,123.613 218,125.299C218,126.759 217.495,127.101 215.943,126.695C214.636,126.354 214.025,126.585 214.268,127.329C214.768,128.862 221.075,131.043 223,130.348C223.825,130.05 224.95,129.693 225.5,129.554ZM233.25,123.125C233.113,122.506 233.73,122 234.622,122C235.963,122 236.025,121.735 234.98,120.476C233.059,118.162 234.497,117.625 237.444,119.556C238.884,120.499 240.348,120.985 240.698,120.635C241.047,120.286 240.808,120 240.167,120C239.525,120 239,119.593 239,119.095C239,118.597 240.742,118.424 242.87,118.709C245.287,119.034 247.015,118.785 247.47,118.048C248.394,116.554 248.082,116.276 245,115.848C243.595,115.652 241.928,114.417 241.194,113.028C240.073,110.906 240.12,110.385 241.525,109.358C243.768,107.718 252.946,105.6 253.804,106.524C254.187,106.936 253.938,107.475 253.25,107.72C252.562,107.966 252,108.87 252,109.729C252,110.844 252.717,110.518 254.5,108.595C255.875,107.111 257,105.663 257,105.377C257,104.058 260.043,102.024 261.679,102.249C262.681,102.387 263.592,102.05 263.704,101.5C263.938,100.35 259.329,100.762 256.787,102.117C255.845,102.619 253.708,103.249 252.037,103.515C250.367,103.782 247.58,104.224 245.845,104.498C244.11,104.773 242.058,105.9 241.286,107.003C240.248,108.484 239.178,108.859 237.19,108.436C234.561,107.877 234.545,107.901 236.5,109.535C238.484,111.194 238.483,111.202 236.334,110.563C235.143,110.208 233.878,110.388 233.523,110.962C233.081,111.677 232.205,111.645 230.737,110.859C229.131,110 228.5,109.999 228.214,110.857C228.005,111.485 227.083,112.014 226.167,112.03C224.663,112.058 224.671,112.161 226.25,113.08C228.928,114.64 228.351,116.126 225.36,115.375C220.347,114.117 217.545,114.414 217.193,116.239C216.914,117.687 217.373,117.875 219.929,117.364C222.038,116.942 223,117.139 223,117.992C223,118.777 223.919,119.057 225.5,118.755C226.875,118.492 228,118.628 228,119.057C228,119.486 228.301,120.622 228.67,121.582C229.163,122.866 228.99,123.112 228.015,122.51C227.128,121.961 226.93,122.077 227.415,122.862C227.813,123.506 228.526,123.793 229,123.5C229.474,123.207 230.159,123.448 230.523,124.036C231.355,125.383 233.586,124.637 233.25,123.125ZM246.75,102.066C251.287,100.49 255,99.4468 255,99.7483C255,100.05 256.308,98.9279 257.907,97.255C259.515,95.5725 261.195,94.5953 261.668,95.068C262.945,96.3451 267.426,93.7436 267.857,91.4749C268.227,89.5299 268.2,89.5288 266.116,91.405C264.054,93.2612 263.948,93.2625 261.95,91.455C260.795,90.4095 258.408,89.6 256.481,89.6C254.597,89.6 252.836,89.016 252.562,88.3C252.287,87.585 251.509,87 250.831,87C249.874,87 249.867,87.2667 250.8,88.2C252.188,89.5882 252.426,91.3815 251.115,90.571C249.881,89.8085 243.89,92.0124 244.502,93.0035C244.777,93.4483 245.902,93.577 247.001,93.2895C248.391,92.926 249,93.2593 249,94.3834C249,95.4307 248.14,96 246.559,96C245.216,96 243.84,96.45 243.5,97C243.16,97.55 243.846,98 245.024,98C248.65,98 246.632,100.437 242.227,101.38C239.965,101.864 237.878,102.877 237.588,103.63C236.893,105.442 237.16,105.397 246.75,102.066ZM284,66.7447C284,65.0553 284.853,64.2224 287.399,63.4257C290.445,62.4722 290.979,62.6038 292.55,64.6962C294.876,67.794 295.626,66.885 293.465,63.5868C292.533,62.164 290.922,61 289.885,61C287.701,61 287.474,59.9563 289.25,58.0776C290.28,56.9877 290.117,56.9519 288.322,57.874C286.067,59.0326 283,58.4624 283,56.8845C283,56.3887 282.1,56.5451 281,57.2321C279.9,57.919 279,59.2728 279,60.2405C279,61.3333 279.758,62 281,62C283.3,62 283.733,64.7813 281.563,65.6141C279.819,66.2833 280.657,69 282.607,69C283.386,69 284,68.0058 284,66.7447ZM118,31.8776C118,33.2953 121.662,33.3556 122.53,31.9522C122.886,31.3758 124.15,31.0383 125.339,31.2022C126.895,31.4166 127.5,30.9721 127.5,29.6142C127.5,25.993 119.237,26.6202 115.318,30.5389C113.721,32.136 114.912,33.318 116.658,31.8689C117.645,31.0496 118,31.0519 118,31.8776Z" fill-rule="evenodd" fill-opacity="0.379767" fill="#250000" />
  </g>
</svg>
