<?xml version='1.0' encoding='utf-8'?>
<!-- Generator: imaengine 6.0   -->
<svg xmlns:xlink="http://www.w3.org/1999/xlink" xmlns="http://www.w3.org/2000/svg" viewBox="0,0,1350,1800" style="enable-background:new 0 0 1350 1800;" version="1.1">
<defs/>
<g id="layer0">
<path stroke="#000000" fill-rule="evenodd" stroke-width="1.5" d="M611,1501L630,1482L650,1478L688,1440L696,1382L718,1330L772,1232L783,1205L797,1181L827,1135L885,1041L911,991L944,948L1069,768L1103,726L1134,681L1201,598L1175,548L1137,510L1080,505L1026,482L967,481L941,477L923,475L893,481L891,457L897,433L861,435L816,462L771,485L749,497L725,495L710,472L678,467L659,486L634,499L605,502L582,487L519,484L487,480L468,485L419,458L359,454L333,458L305,466L272,463L246,457L219,468L196,483L131,480L95,520L63,564L71,618L116,649L181,737L244,826L275,871L305,917L338,960L364,1010L397,1053L424,1103L454,1149L467,1174L480,1199L531,1300L560,1347L559,1406L573,1462L611,1501Z" fill="#000000" stroke-linecap="round" stroke-linejoin="round"/>
</g>
<g id="layer1">
<path d="M607.324,1497.25C605.429,1495.19 602.376,1491.25 600.539,1488.5C596.758,1482.84 594.143,1480.31 588.75,1477.08C586.688,1475.85 584.996,1474.54 584.991,1474.17C584.987,1473.8 578.805,1467.2 571.254,1459.51L557.525,1445.52L556.891,1430.66C556.21,1414.72 556.467,1412.72 560.396,1403.5C561.802,1400.2 562.973,1396.6 562.998,1395.5C563.023,1394.4 563.918,1391.57 564.986,1389.22C566.461,1385.97 566.696,1384.33 565.964,1382.41C565.434,1381.01 565,1378.13 565,1376C565,1373.87 564.469,1370.86 563.821,1369.32C563.172,1367.77 562.61,1362.81 562.571,1358.31C562.504,1350.52 562.343,1349.95 559.345,1346.81C557.61,1344.99 554.846,1340.8 553.205,1337.5C545.076,1321.16 539.573,1311.28 536.922,1308.26C535.313,1306.43 532.851,1302.81 531.451,1300.21C530.051,1297.62 528.27,1294.38 527.494,1293C526.718,1291.62 525.3,1287.83 524.344,1284.56C523.387,1281.29 521.083,1276.35 519.223,1273.59C517.363,1270.83 514.728,1265.92 513.367,1262.68C512.006,1259.45 509.127,1254.57 506.968,1251.84C504.81,1249.11 502.55,1244.99 501.947,1242.69C501.344,1240.38 499.79,1236.87 498.494,1234.88C497.198,1232.88 495.824,1229.58 495.441,1227.54C495.057,1225.49 493.23,1221.95 491.38,1219.66C483.89,1210.39 482,1207.62 482,1205.87C482,1204.86 480.2,1199.58 478,1194.12C475.608,1188.19 474,1182.56 474,1180.12C474,1176.49 473.694,1175.97 471.25,1175.38C467.782,1174.56 465,1172.18 465,1170.04C465,1169.13 463.745,1166.39 462.21,1163.95C460.676,1161.5 458.848,1157.56 458.149,1155.18C457.226,1152.04 455.956,1150.32 453.515,1148.88C447.671,1145.43 441.992,1137.52 440.574,1130.85C440.264,1129.39 438.301,1126.01 436.211,1123.35C434.121,1120.68 430.78,1115.04 428.786,1110.81C426.791,1106.59 423.385,1101.19 421.217,1098.81C414.952,1091.96 408.289,1080.15 407.487,1074.48C406.569,1067.98 399.363,1055.44 391.697,1047C388.449,1043.42 384.753,1038.47 383.485,1036C382.216,1033.53 378.217,1028.23 374.597,1024.23C370.977,1020.22 367.051,1015.05 365.873,1012.73C364.694,1010.4 361.429,1005.84 358.618,1002.58C353.631,996.803 353.492,996.47 352.942,988.979C352.428,981.986 351.97,980.68 347.82,974.381C345.313,970.576 342.491,966.823 341.549,966.041C340.608,965.259 338.537,962.045 336.948,958.897C334.595,954.236 333.389,952.953 330.444,951.981C324.441,950 320.199,945.494 318.359,939.144C317.387,935.789 314.955,931.244 312.362,927.938C309.963,924.879 308,921.871 308,921.254C308,920.637 305.863,917.413 303.25,914.09C300.637,910.766 296.545,904.651 294.155,900.502C291.765,896.352 288.225,891.748 286.288,890.27C284.087,888.591 281.357,884.755 279.01,880.042C276.945,875.894 274.321,870.7 273.181,868.5C272.04,866.3 270.594,863.075 269.967,861.334C269.224,859.271 266.951,856.923 263.443,854.593C257.203,850.451 256.222,849.121 251.935,839C250.188,834.875 247.8,830.156 246.629,828.513C245.458,826.87 243.78,823.945 242.9,822.013C242.02,820.081 238.128,815.016 234.252,810.759C228.713,804.675 226.952,801.97 226.03,798.125C224.945,793.604 220.124,787 217.907,787C217.436,787 216.356,785.656 215.507,784.013C214.657,782.37 210.708,777.247 206.731,772.628C202.754,768.009 198.254,761.913 196.732,759.081C195.072,755.996 192.216,752.701 189.602,750.859C186.65,748.778 184.479,746.124 182.882,742.642C179.139,734.487 172.411,724.551 168.728,721.741C166.866,720.322 160.157,713.387 153.818,706.33C142.457,693.683 135.127,683.059 130.421,672.418C129.101,669.432 125.991,664.403 123.511,661.244C121.03,658.085 119.001,654.918 119.001,654.207C118.999,651.581 109.817,643.028 105.852,641.96C103.719,641.386 100.517,639.649 98.7369,638.101C96.9566,636.553 93.7,634.72 91.5,634.029C85.532,632.153 78.5984,627.436 74.556,622.503C72.5806,620.092 68.754,616.688 66.0526,614.937C63.3396,613.179 60.7249,610.578 60.2114,609.127C56.281,598.018 55.7249,594.894 56.2374,586.803C56.5686,581.575 57.5184,576.834 58.802,574C62.7408,565.305 65,559.109 65,556.999C65,553.977 66.6511,551.178 71.5617,545.876C73.9173,543.333 76.4147,539.348 77.1123,537.02C78.4851,532.437 85.2109,525.838 93.3727,521.065C107.163,513.001 111.005,509.147 118.402,495.962C121.962,489.615 125.852,483.54 127.047,482.462C129.891,479.894 139.049,479.931 144.016,482.53C146.068,483.604 151.199,484.69 156.5,485.173C161.45,485.625 168.425,486.267 172,486.601C175.713,486.947 180.858,486.702 184,486.029C187.025,485.381 192.2,484.383 195.5,483.812C203.822,482.372 205.636,481.313 208.915,475.984C210.735,473.026 212.998,470.837 215.137,469.965C216.987,469.211 220.255,467.335 222.4,465.797C225.327,463.698 227.456,463 230.934,463C234.528,463 236.786,462.215 241,459.5C243.988,457.575 247.262,456 248.275,456C249.288,456 251.778,457.289 253.809,458.865C255.839,460.441 259.267,462.402 261.426,463.224C264.888,464.542 266.011,464.545 270.926,463.256C277.989,461.402 292.219,462.01 296.5,464.349C301.197,466.915 306.38,466.473 310.215,463.179C312.022,461.627 314.613,459.602 315.973,458.679C319.098,456.557 327.781,456.464 332.654,458.5C334.629,459.325 337.877,460.011 339.872,460.024C341.867,460.037 345.105,460.421 347.068,460.877C349.03,461.334 352.026,461.503 353.725,461.254C356.295,460.877 356.919,460.244 357.434,457.501C358.447,452.102 359.43,451.812 377.224,451.649L393.5,451.5L397.731,454.37C400.978,456.573 402.605,457.082 404.731,456.56C411.489,454.898 412.897,454.893 416.118,456.523C417.978,457.464 420.4,459.027 421.5,459.997C422.653,461.014 425.754,461.964 428.824,462.241C433.512,462.663 434.706,463.269 438.824,467.31C443.703,472.099 455.979,477.99 461.095,477.997C464.501,478.001 466.944,480.831 467.682,485.626C468.962,493.948 472.187,494.047 479.844,486C485.472,480.086 485.632,480 491.055,480C495.198,480 497.408,480.583 500.003,482.362C503.351,484.655 503.894,484.709 518.987,484.227C535.245,483.708 544.674,484.934 553.286,488.687C556.796,490.216 557.323,490.217 560.506,488.698C562.395,487.798 566.886,486.518 570.486,485.855C576.506,484.745 577.329,484.813 580.765,486.702C582.819,487.832 586.126,489.044 588.113,489.397C592.397,490.158 594.744,492.47 595.605,496.777C596.098,499.24 596.982,500.169 599.683,501.06C601.58,501.687 604.038,501.962 605.146,501.672C606.254,501.382 609.014,501.799 611.28,502.599C614.911,503.88 615.929,503.871 619.878,502.526C622.341,501.687 625.979,501 627.962,501C630.341,501 633.314,499.875 636.702,497.692C639.527,495.872 644.913,493.145 648.672,491.632C658.175,487.806 659.834,486.314 661.468,480.121C663.198,473.564 665.215,471.231 669.887,470.384C671.874,470.024 675.221,468.864 677.324,467.807C680.951,465.983 681.529,465.963 688.585,467.422C692.676,468.268 697.345,469.644 698.962,470.48C700.761,471.411 704.586,472 708.828,472C716.653,472 717.039,472.285 718.832,479.386C720.561,486.237 726.257,498.116 728.957,500.5C730.746,502.081 732.474,502.463 737.202,502.322C743.812,502.126 745.674,500.995 749.625,494.777C752.728,489.894 761.517,483 764.639,483C765.992,483 768.492,483.72 770.193,484.6C774.107,486.624 779.234,486.65 782.074,484.661C783.282,483.814 785.448,481.347 786.886,479.177C791.037,472.913 801.546,462.123 804.64,460.947C806.701,460.163 808.618,460.193 811.7,461.056C814.027,461.707 816.597,461.985 817.411,461.672C818.226,461.36 820.03,458.718 821.421,455.802C823.032,452.426 825.305,449.592 827.681,448C829.733,446.625 833.276,443.895 835.554,441.934C841.409,436.894 845.143,435.506 849.118,436.891C853.868,438.547 856.152,438.261 860.215,435.5C863.781,433.077 864.413,433 880.825,433C898.834,433 899.148,433.082 900.34,438.085C901.314,442.177 899.475,446.677 894.625,452.072C889.103,458.214 888.24,460.881 887.774,473.253C887.419,482.706 887.47,482.985 889.454,482.337C890.579,481.969 894.26,480.942 897.632,480.054C901.005,479.166 904.496,477.833 905.39,477.092C906.574,476.109 908.619,475.925 912.931,476.413C919.975,477.21 925.631,475.04 931.032,469.467C936.146,464.19 939,465.083 939,471.96C939,474.113 940.262,475.835 944.479,479.438C951.354,485.312 955.081,486.072 962.13,483.039C966.669,481.087 968.435,480.888 976.893,481.377C982.177,481.682 988.531,482.209 991.013,482.548C995.12,483.108 996.078,482.796 1001.64,479.082C1005,476.837 1008.63,475 1009.7,475C1010.78,475 1013.8,476.42 1016.42,478.156C1019.69,480.318 1022.81,481.465 1026.34,481.798C1033.37,482.462 1044.2,488.912 1048.64,495.075C1052.21,500.03 1055.44,502 1060.01,502C1061.62,502 1064.91,502.674 1067.34,503.497C1076.65,506.657 1105.89,505.186 1113.71,501.165C1116.41,499.776 1119.75,499 1123.04,499C1129.66,499 1131.62,500.947 1139.8,515.675C1143.21,521.821 1147.24,527.799 1148.75,528.959C1159.02,536.837 1162.13,539.028 1165.59,540.798C1172.38,544.27 1178.67,550.57 1180.39,555.643C1181.31,558.344 1184,562.418 1186.82,565.405C1190.44,569.236 1191.84,571.589 1192.34,574.721C1192.71,577.026 1194.63,582.869 1196.62,587.706C1201.65,599.95 1202.54,609.53 1199.72,620.823C1198.03,627.595 1197.09,629.552 1194.7,631.323C1193.09,632.52 1188.32,636.747 1184.1,640.716C1178.34,646.128 1174.3,648.915 1167.92,651.861C1163.25,654.022 1158.84,656.488 1158.13,657.342C1157.42,658.196 1154.74,659.667 1152.17,660.612C1146.48,662.703 1142.77,665.985 1139.32,671.969C1137.89,674.461 1135.22,678.361 1133.38,680.635C1131.55,682.91 1128.47,688.085 1126.54,692.135C1124.61,696.186 1121.52,702.102 1119.66,705.282C1114.81,713.613 1089.59,742 1087.04,742C1085.8,742 1077.78,754.442 1075.07,760.581C1073.75,763.558 1070.81,767.311 1067.42,770.329C1064.39,773.029 1060.84,777.321 1059.53,779.868C1058.22,782.416 1054.14,787.875 1050.48,792C1046.81,796.125 1043.22,800.625 1042.51,802C1041.79,803.375 1039.41,805.944 1037.21,807.709C1034.1,810.21 1032.95,812.023 1032.02,815.921C1031.08,819.82 1029.16,822.858 1023.31,829.685C1019.19,834.503 1014.7,840.483 1013.36,842.973C1012.01,845.463 1010.25,848.625 1009.44,850C1008.64,851.375 1006.17,856.386 1003.96,861.135C1000.41,868.747 999.322,870.17 994.746,873.135C991.89,874.986 989.046,877.625 988.426,879C981.915,893.443 973.876,907.729 971.562,908.967C969.245,910.207 963.215,918.645 959.689,925.582C958.827,927.278 956.496,930.611 954.509,932.99C952.521,935.368 950.307,938.706 949.587,940.407C948.868,942.108 946.406,945.75 944.116,948.5C941.591,951.534 939.721,954.943 939.362,957.169C938.426,962.972 935.839,966.194 929.486,969.468C924.471,972.051 923.073,973.416 920.223,978.505C918.377,981.802 915.624,985.85 914.106,987.5C912.588,989.15 909.918,992.789 908.173,995.588C905.593,999.724 905,1001.72 905,1006.27C905,1013.38 903.988,1015.97 899.141,1021.24C896.989,1023.58 893.828,1027.88 892.117,1030.79C890.407,1033.7 886.105,1039.4 882.559,1043.47C879.012,1047.54 875.124,1052.81 873.919,1055.18C872.713,1057.56 869.09,1062.33 865.867,1065.78C862.644,1069.24 859.041,1073.96 857.859,1076.28C856.678,1078.6 854.699,1081.85 853.462,1083.5C852.147,1085.25 850.914,1088.78 850.493,1092C850.029,1095.55 848.572,1099.46 846.387,1103.02C844.524,1106.06 843,1108.91 843,1109.37C843,1109.82 840.57,1112.96 837.599,1116.35C834.629,1119.73 830.551,1125.97 828.537,1130.22C826.524,1134.46 823.132,1140.04 820.999,1142.62C818.697,1145.41 816.862,1148.86 816.48,1151.12C815.672,1155.9 811.778,1161.33 805.189,1166.84C801.46,1169.96 799.89,1172.07 799.42,1174.57C799.065,1176.47 797.871,1179.17 796.768,1180.57C795.664,1181.97 794.027,1185.17 793.13,1187.68C791.789,1191.43 790.876,1192.44 787.999,1193.37C784.804,1194.4 784.454,1194.9 783.972,1199.09C783.682,1201.61 781.792,1207.91 779.772,1213.09C777.753,1218.26 775.861,1223.67 775.567,1225.11C775.274,1226.54 772.386,1230.88 769.15,1234.74C765.153,1239.51 763.041,1243 762.564,1245.63C762.177,1247.76 760.726,1251.16 759.338,1253.19C757.951,1255.21 756.392,1258.76 755.874,1261.06C755.356,1263.37 753.006,1267.78 750.652,1270.88C748.297,1273.97 745.285,1278.97 743.957,1282C742.63,1285.03 740.068,1289.69 738.264,1292.37C736.46,1295.05 734.3,1299.78 733.465,1302.87C732.63,1305.97 731.305,1309.62 730.52,1311C729.736,1312.38 727.889,1315.75 726.415,1318.5C724.942,1321.25 722.048,1325.53 719.985,1328C717.922,1330.47 715.016,1335.4 713.526,1338.94C712.037,1342.48 709.788,1346.75 708.53,1348.44C707.271,1350.12 705.264,1353.75 704.069,1356.5C702.875,1359.25 700.496,1362.95 698.784,1364.72C694.085,1369.57 693.812,1376.2 697.892,1386.39C701.249,1394.77 701.628,1400.22 700.163,1419L699.5,1427.5L687.22,1439.88C680.465,1446.69 674.165,1453.23 673.22,1454.42C672.274,1455.6 669.495,1457.91 667.045,1459.54C664.594,1461.18 661.085,1464.54 659.247,1467.01C649.753,1479.77 647.676,1482 645.285,1482C642.259,1482 639.297,1480.5 635.703,1477.15C632.515,1474.17 631.634,1474.81 630.486,1480.92C629.472,1486.33 622.552,1496.32 618.082,1498.83C612.797,1501.8 611.307,1501.59 607.324,1497.25Z" fill-rule="evenodd" fill="#000000"/>
</g>
</svg>
