<?xml version='1.0' encoding='utf-8'?>
<!-- Generator: imaengine 6.0   -->
<svg xmlns:xlink="http://www.w3.org/1999/xlink" xmlns="http://www.w3.org/2000/svg" viewBox="0,0,1350,1800" style="enable-background:new 0 0 1350 1800;" version="1.1">
<defs/>
<g id="layer0">
<path stroke="#000000" fill-rule="evenodd" stroke-width="1.5" d="M503,1045L525,1030L556,1033L621,1029L686,1029L719,1026L746,1027L779,979L793,951L805,921L864,819L865,818L880,791L899,761L916,734L933,702L941,689L946,675L958,664L966,650L971,640L980,626L992,589L1022,526L1058,463L1062,429L1037,403L1009,385L978,371L966,383L937,363L934,351L920,346L905,338L891,330L768,251L708,210L680,194L659,164L644,160L631,166L605,185L579,201L550,219L523,234L495,251L468,270L439,292L382,330L355,349L328,369L274,410L222,453L218,470L205,472L197,501L212,532L228,567L277,710L303,777L330,849L356,922L377,951L392,983L399,1001L405,1014L431,1031L468,1031L491,1031L503,1045Z" fill="#000000" stroke-linecap="round" stroke-linejoin="round"/>
<path stroke="#000000" fill-rule="evenodd" stroke-width="1.5" d="M864,821L865,819L864,819L864,821Z" fill="#000000" stroke-linecap="round" stroke-linejoin="round"/>
<path stroke="#000000" fill-rule="evenodd" stroke-width="1.5" d="M869,814L870,813L869,814ZM262,543L242,519L236,485L262,543ZM277,480L269,457L277,480ZM280,458L277,452L280,458ZM326,438L324,437L326,438Z" fill="#000000" stroke-linecap="round" stroke-linejoin="round"/>
<path stroke="#000000" fill-rule="evenodd" stroke-width="1.5" d="M238,434L239,433L238,434ZM326,426L323,426L326,426ZM663,190L655,183L663,190Z" fill="#000000" stroke-linecap="round" stroke-linejoin="round"/>
</g>
<g id="layer1">
<path d="M502.199,1044.32C500.306,1043.56 496,1036.39 496,1033.99C496,1032.86 495.438,1031.75 494.75,1031.52C494.062,1031.3 483.99,1030.92 472.367,1030.69C460.744,1030.45 450.763,1029.97 450.186,1029.62C449.61,1029.26 448.856,1029.42 448.51,1029.98C447.549,1031.54 443.137,1031.19 439.954,1029.31C437.193,1027.68 436.911,1027.72 431.414,1030.41C426.187,1032.97 421.832,1033.67 414.367,1033.15C412.824,1033.04 411.511,1031.47 409.617,1027.47C408.178,1024.43 407,1021.01 407,1019.86C407,1018.71 405.938,1015.68 404.641,1013.14C403.343,1010.59 401.687,1007.25 400.961,1005.73C400.008,1003.73 399.41,1003.31 398.807,1004.23C398.333,1004.95 398.229,1003.77 398.567,1001.5C399.315,996.465 396.727,988.367 393.34,985.147C391.979,983.853 391.089,982.211 391.362,981.498C391.636,980.786 390.541,978.726 388.93,976.921C387.318,975.116 386,972.569 386,971.261C386,969.93 385.56,969.154 385,969.5C384.446,969.842 383.986,969.088 383.968,967.809C383.951,966.539 383.276,964.626 382.468,963.559C381.661,962.491 381,959.696 381,957.348C381,953.36 380.687,952.873 376.25,949.954C373.637,948.236 370.425,945.112 369.11,943.012C367.796,940.912 365.658,938.71 364.36,938.118C363.062,937.527 362,936.39 362,935.593C362,934.795 361.383,933.526 360.63,932.773C358.439,930.582 356,925.302 356,922.75C356,921.457 355.642,919.972 355.204,919.45C354.766,918.928 353.812,916.7 353.084,914.5C350.933,908.004 344.847,895.642 342.85,893.711C341.609,892.511 341,890.494 341,887.583C341,885.152 340.404,882.75 339.644,882.12C338.84,881.452 338.06,877.983 337.728,873.59C337.38,868.987 336.494,865.157 335.385,863.464C334.404,861.967 333.532,858.698 333.447,856.199C333.339,852.974 332.707,851.182 331.271,850.018C328.461,847.743 326.376,843.286 325.72,838.152C325.414,835.76 324.227,832.806 323.082,831.587C321.932,830.364 321,828.034 321,826.386C321,824.743 320.502,822.902 319.893,822.293C319.284,821.684 318.621,819.1 318.42,816.551C318.219,814.002 317.368,810.935 316.527,809.736C315.687,808.536 315,806.932 315,806.17C315,805.409 313.704,802.022 312.12,798.643C308.194,790.27 304.361,780.38 302.845,774.711C302.152,772.12 301.229,770 300.793,770C300.357,770 299.994,768.987 299.986,767.75C299.965,764.22 298.86,760.969 297.886,761.57C297.399,761.872 297,761.277 297,760.25C297,759.223 296.375,757.528 295.611,756.483C294.847,755.438 294.471,753.937 294.774,753.147C295.077,752.357 294.653,751.213 293.832,750.605C291.419,748.818 286.889,738.925 287.542,736.867C287.868,735.84 287.711,735 287.192,735C286.081,735 284.828,730.128 284.489,724.488C284.314,721.585 283.385,719.553 281.124,717.133C279.406,715.293 278,713.026 278,712.094C278,711.162 277.56,709.96 277.022,709.422C275.955,708.355 274.759,701.93 274.911,698.077C274.963,696.745 274.126,694.834 273.049,693.831C271.973,692.828 270.836,690.319 270.522,688.254C270.209,686.189 269.474,683.15 268.889,681.5C268.303,679.85 267.484,677.15 267.067,675.5C266.651,673.85 265.116,669.982 263.655,666.904C262.195,663.825 261,660.364 261,659.213C261,658.061 260.55,656.84 260,656.5C259.45,656.16 259,655.104 259,654.152C259,653.201 258.154,650.764 257.12,648.736C255.785,646.117 255.385,643.766 255.739,640.625C256.193,636.592 255.984,636.043 253.369,634.403C251.791,633.414 250.337,632.493 250.137,632.357C249.938,632.22 249.631,629.975 249.455,627.368C249.13,622.547 246.723,615.818 244.271,612.875C243.526,611.981 243.019,610.856 243.144,610.375C243.269,609.894 242.613,607.758 241.686,605.628C240.759,603.498 240,600.772 240,599.569C240,598.366 239.339,596.509 238.532,595.441C237.724,594.374 237.049,592.817 237.032,591.982C237.014,591.147 235.853,588.776 234.451,586.712C232.931,584.476 231.652,580.856 231.284,577.752C230.916,574.639 228.925,569.016 226.334,563.771C223.95,558.946 222,554.324 222,553.499C222,552.675 221.55,552 221,552C220.45,552 220,550.834 220,549.409C220,546.161 211.991,530.513 208.275,526.5C206.747,524.85 203.547,521.849 201.164,519.832C197.763,516.952 196.718,515.315 196.302,512.212C195.982,509.829 196.214,507.986 196.886,507.571C198.965,506.285 197.658,499.484 194.103,493.097C192.124,489.541 192.03,481.917 193.955,481.224C196.116,480.446 205.456,473.016 204.381,472.93C203.896,472.891 204.4,472.474 205.5,472.002C208.042,470.912 213.794,471.781 216.879,473.72C219.244,475.206 219.254,475.194 218.54,471.858C217.447,466.747 217.534,461.906 218.733,461.165C219.325,460.799 219.865,460.05 219.933,459.5C220.735,453.05 226.091,442.423 229.007,441.498C230.047,441.168 231.176,440.021 231.516,438.949C231.877,437.813 233.045,436.991 234.317,436.978C236.918,436.951 241.499,433.654 241.501,431.807C241.502,430.97 242.814,430.5 245.146,430.5C247.212,430.5 249.626,429.742 250.723,428.75C251.787,427.788 253.424,427 254.36,427C255.297,427 256.3,426.382 256.589,425.627C257.249,423.909 270.121,413.414 271.169,413.74C271.593,413.872 272.426,413.072 273.02,411.962C273.614,410.852 274.511,410.198 275.013,410.508C276.095,411.177 283.512,406.677 284.684,404.641C285.133,403.861 286.4,403.054 287.5,402.848C288.6,402.641 289.407,402.029 289.292,401.486C289.178,400.944 290.634,399.705 292.527,398.734C294.511,397.716 296.227,395.943 296.577,394.55C296.943,393.092 297.708,392.335 298.507,392.641C299.235,392.92 300.853,391.765 302.103,390.074C303.353,388.383 305.079,386.986 305.938,386.969C308.697,386.914 315.298,382.235 323.145,374.771C332.724,365.66 340.546,359.164 343.626,357.761C344.932,357.166 346,356.05 346,355.28C346,354.511 346.406,354.133 346.903,354.44C347.399,354.747 348.274,353.653 348.847,352.009C349.583,349.898 350.349,349.197 351.457,349.622C352.32,349.953 353.675,349.685 354.469,349.026C355.263,348.367 356.346,348.096 356.876,348.423C357.406,348.751 358.663,347.985 359.67,346.721C360.676,345.458 363.075,343.789 365,343.014C366.925,342.239 370.111,339.865 372.08,337.739C374.049,335.613 376.299,333.778 377.08,333.662C379.195,333.347 389.623,325.225 391.406,322.503C392.279,321.171 394.168,319.998 395.728,319.819C397.291,319.639 398.391,318.955 398.25,318.25C398.112,317.563 398.903,317 400.007,317C401.11,317 402.983,315.885 404.168,314.522C405.674,312.79 406.98,312.208 408.503,312.59C411.141,313.252 417.384,308.443 416.586,306.365C416.248,305.482 416.795,305 418.137,305C419.961,305 422.817,303.204 428.014,298.787C428.846,298.079 430.735,296.958 432.21,296.296C433.685,295.634 436.604,293.602 438.696,291.78C443.07,287.973 450.042,284 452.351,284C453.219,284 454.427,283.07 455.035,281.934C455.643,280.798 458.047,279.051 460.378,278.052C464.469,276.299 468.599,271.778 467.595,270.153C467.326,269.719 468.77,268.767 470.803,268.039C472.836,267.311 475.573,265.879 476.885,264.858C478.197,263.836 479.639,263 480.09,263C482.567,263 492.064,254.882 493.272,251.733C493.65,250.749 494.714,250.414 496.421,250.74C498.272,251.094 499,250.807 499,249.724C499,248.272 501.653,246.498 503.291,246.855C504.688,247.159 508.074,244.929 507.536,244.058C507.25,243.595 509.008,242.628 511.444,241.909C513.879,241.19 515.711,240.341 515.514,240.023C515.317,239.704 515.909,238.45 516.828,237.236C518.761,234.683 527.23,232.63 528.907,234.307C529.61,235.01 530.126,234.834 530.542,233.751C530.876,232.881 532.924,230.939 535.093,229.436C537.313,227.897 539.307,225.566 539.656,224.101C539.997,222.671 540.719,220.938 541.26,220.25C542.431,218.764 547,218.565 547,220C547,220.55 547.675,221 548.5,221C549.848,221 550.44,219.822 550.124,217.768C550.062,217.365 551.247,216.765 552.756,216.434C557.531,215.388 558.028,215.095 558.961,212.772C559.463,211.522 559.902,210.844 559.937,211.264C559.99,211.91 564.191,209.856 576.086,203.367C579.537,201.485 584.964,195.751 584.305,194.684C583.925,194.069 584.585,193.92 586.022,194.296C587.738,194.744 588.983,194.231 590.717,192.361C592.014,190.961 593.7,190.054 594.462,190.347C595.224,190.64 596.895,189.858 598.174,188.61C600.751,186.096 603.839,184.578 605.75,184.886C606.438,184.997 607,184.479 607,183.735C607,180.695 609.784,178.669 614.854,178.019C617.69,177.655 620,177.758 620,178.249C620,180.07 624.492,178.416 625.599,176.186C626.231,174.914 628.009,172.556 629.551,170.947C631.093,169.337 632.049,167.715 631.675,167.342C630.643,166.31 634.059,163 636.155,163C637.17,163 638,163.45 638,164C638,164.55 638.9,165 640,165C641.764,165 642.439,164.005 642.148,161.838C642.099,161.473 643.355,160.723 644.939,160.171C648.881,158.797 656.1,160.576 655.278,162.719C654.846,163.842 655.186,164.079 656.599,163.638C657.644,163.312 659.032,163.381 659.683,163.79C661.505,164.938 668,176.158 668,178.16C668,180.521 675.965,192.052 678.156,192.862C679.105,193.213 680.02,193.921 680.19,194.435C680.361,194.949 681.447,195.41 682.604,195.461C683.76,195.512 686.158,197.004 687.93,198.777C689.703,200.549 691.457,202.037 691.827,202.083C692.197,202.129 693.449,202.274 694.609,202.406C696.824,202.657 712.066,211.126 715.5,214.014C716.6,214.939 719.975,217.14 723,218.905C726.025,220.669 730.525,223.422 733,225.023C735.475,226.623 739.075,228.808 741,229.879C742.925,230.949 748.51,235.689 753.411,240.413C758.312,245.136 763.124,249 764.104,249C765.085,249 766.475,249.805 767.193,250.788C767.912,251.772 771.813,255.15 775.862,258.296C779.911,261.442 784.085,265.11 785.137,266.447C786.189,267.785 789.926,270.238 793.44,271.898C796.955,273.559 800.1,275.353 800.429,275.886C800.759,276.418 802.709,277.394 804.764,278.054C806.819,278.714 809.85,280.61 811.5,282.267C814.369,285.148 821.765,289 824.428,289C825.122,289 826.442,289.831 827.361,290.847C828.28,291.862 830.772,293.214 832.897,293.851C835.023,294.488 837.321,295.682 838.004,296.505C838.686,297.327 839.645,298 840.133,298C841.677,298 850.339,302.253 854.5,305.054C856.7,306.535 861.425,309.271 865,311.135C872.173,314.875 874.6,316.479 882.57,322.75C885.541,325.087 888.266,327 888.626,327C888.985,327 889.779,327.66 890.39,328.467C891.794,330.321 900,331.74 900,330.128C900,328.418 902.701,328.779 903.393,330.582C903.727,331.452 904,333.153 904,334.362C904,337.727 910.602,343.413 914.822,343.683C917.363,343.846 919.456,344.99 922.415,347.834C927.291,352.521 928.97,353.199 931.105,351.345C933.389,349.363 935.572,350.567 937.943,355.116C940.5,360.02 940.498,360.363 937.921,359.69C936.36,359.281 935.986,359.522 936.421,360.655C936.739,361.485 937,362.335 937,362.545C937,362.754 939.812,364.803 943.25,367.097C946.688,369.392 951.378,373.068 953.673,375.267C955.968,377.466 958.893,379.373 960.173,379.505C961.453,379.637 962.828,379.802 963.23,379.872C963.631,379.943 964.878,381.8 966,384C968.118,388.151 970.345,389.15 971.393,386.418C972.408,383.772 972.092,381.822 969.922,377.339C967.585,372.51 967.678,370.226 970.278,368.607C971.641,367.759 972.262,367.829 972.937,368.91C973.42,369.686 974.87,370.436 976.158,370.577C977.446,370.718 978.864,370.871 979.309,370.917C979.754,370.963 979.864,371.412 979.553,371.915C978.872,373.015 987.299,376.4 989.168,375.777C989.891,375.536 991.13,375.987 991.922,376.779C992.893,377.751 994.709,378.068 997.499,377.753C1001.85,377.263 1004.97,378.852 1006.25,382.21C1006.61,383.15 1010.01,385.4 1013.81,387.21C1017.61,389.019 1020.9,390.95 1021.11,391.5C1021.32,392.05 1021.97,392.508 1022.54,392.518C1023.12,392.527 1024.92,393.791 1026.54,395.325C1028.17,396.86 1032.88,400.368 1037,403.122C1043.68,407.582 1053.47,417.323 1060.7,426.704C1062.9,429.563 1063.11,430.614 1062.68,436.484C1062.41,440.101 1061.73,443.622 1061.16,444.309C1060.59,444.997 1060.16,447.097 1060.22,448.977C1060.27,450.857 1059.79,452.568 1059.16,452.781C1058.52,452.993 1058,453.606 1058,454.142C1058,454.679 1058.45,454.84 1059,454.5C1060.57,453.531 1060.18,457.153 1058.02,463.595C1056.94,466.843 1056.04,472.147 1056.02,475.382C1056,480.976 1055.79,481.476 1051.65,485.614C1049.26,488.007 1047.5,490.171 1047.76,490.423C1048.01,490.674 1046.81,492.37 1045.1,494.19C1043.38,496.011 1041.44,498.71 1040.77,500.188C1040.11,501.667 1038.55,503.339 1037.31,503.904C1036.07,504.469 1034.44,506.41 1033.68,508.216C1032.93,510.022 1031.57,512.118 1030.65,512.872C1029.74,513.627 1029,514.985 1029,515.89C1029,517.543 1025.03,523.962 1021.95,527.276C1021.04,528.253 1020.26,530.443 1020.21,532.144C1020.17,533.844 1019.2,536.224 1018.06,537.432C1016.93,538.64 1016,540.414 1016,541.373C1016,542.333 1015.59,542.862 1015.08,542.549C1013.65,541.665 1009.89,547.075 1010.53,549.095C1011.18,551.144 1009.09,555 1007.33,555C1005.52,555 1001.91,560.608 1002.59,562.375C1003.23,564.032 997.603,573.555 995.516,574.355C994.845,574.613 994.013,577.236 993.666,580.186C993.313,583.191 991.489,588.686 989.518,592.688C987.262,597.266 986,601.271 986,603.847C986,606.917 985.551,608.008 984.099,608.468C981.957,609.148 981.32,611.272 981.087,618.5C980.885,624.813 980.222,627 978.514,627C977.77,627 975.809,627.777 974.155,628.726C971.333,630.346 971.182,630.737 971.697,635.091C972.334,640.468 970.908,642.128 968.54,638.767C967.186,636.844 966.799,636.728 965.987,638C964.662,640.078 964.732,650 966.071,650C966.661,650 966.436,650.707 965.571,651.571C964.707,652.436 963.99,653.898 963.978,654.821C963.966,655.745 962.504,657.175 960.728,658C958.182,659.183 957.483,660.134 957.418,662.5C957.272,667.795 957.23,667.841 953,667.273C949.279,666.774 949,666.907 949,669.177C949,670.519 948.339,672.491 947.532,673.559C946.724,674.626 946.049,677.428 946.032,679.785C946.003,683.708 945.836,683.983 944.066,683.035C941.331,681.572 941.385,681.494 941.385,686.916C941.385,692.666 939.628,695.353 936.287,694.715C933.398,694.162 932.507,695.496 932.878,699.811C933.194,703.479 929.002,711 926.641,711C923.946,711 921.761,714.872 921.476,720.154C921.244,724.454 920.733,725.719 918.597,727.275C917.169,728.315 916,729.992 916,731.001C916,735.439 908.848,747 906.103,747C905.556,747 904.502,748.237 903.759,749.75C902.814,751.674 901.747,752.428 900.204,752.262C897.947,752.018 897.207,753.392 899,754.5C900.795,755.61 900.055,758.669 897.25,761.734C895.737,763.386 893.769,764.986 892.875,765.29C891.843,765.64 890.995,767.551 890.547,770.535C890.032,773.968 889.327,775.363 887.922,775.731C886.109,776.205 885.53,777.289 885.943,779.436C886.419,781.902 884.696,785.165 882.472,786.011C881.072,786.543 880,787.753 880,788.801C880,789.819 878.875,791.708 877.5,793C876.125,794.292 875,795.814 875,796.382C875,796.951 873.368,799.087 871.372,801.131C868.42,804.154 867.867,805.333 868.402,807.464C868.763,808.904 869.495,809.812 870.029,809.482C872.454,807.983 870.669,810.869 867.909,812.909C865.876,814.412 864.978,815.808 865.286,816.987C865.544,817.972 865.318,819.391 864.783,820.139C864.037,821.184 863.94,821.098 864.366,819.77C865.221,817.107 853.759,826.82 851.823,830.399C848.565,836.422 842.972,848.918 843.183,849.704C843.673,851.531 841.812,854.865 840.568,854.388C839.208,853.866 834.302,860.635 835.31,861.643C835.606,861.939 834.757,864.232 833.424,866.739C832.091,869.247 831,871.927 831,872.695C831,873.464 829.653,874.86 828.006,875.797C825.919,876.984 825.019,878.257 825.035,880C825.063,883.274 819.371,894.2 815.25,898.779C813.289,900.959 812,903.454 812,905.073C812,908.43 809.878,913.51 806.693,917.777C805.348,919.579 803.965,922.82 803.619,924.98C803.274,927.139 802.415,929.264 801.71,929.703C798.336,931.802 796.207,936.245 795.525,942.613C794.868,948.746 794.479,949.581 790.462,953.486C786.158,957.668 785.62,958.849 784.614,966.332C784.016,970.779 780.273,979 778.846,979C777.816,979 773.662,983.574 770.786,987.875C769.785,989.373 769.307,991.375 769.637,992.69C769.982,994.064 769.579,995.564 768.602,996.54C767.723,997.42 766.75,999.346 766.441,1000.82C766.132,1002.29 765.456,1004.28 764.94,1005.24C764.423,1006.19 764,1007.83 764,1008.88C764,1009.93 763.372,1011.03 762.604,1011.32C761.809,1011.63 760.905,1014.05 760.506,1016.95C759.75,1022.45 757.984,1025 754.929,1025C753.868,1025 753,1025.45 753,1026C753,1026.55 750.794,1027 748.098,1027C743.55,1027 743.12,1027.22 742.15,1030C741.224,1032.66 740.647,1033 737.125,1033C734.071,1033 732.688,1032.42 731.179,1030.5C730.097,1029.12 728.579,1028 727.806,1028C727.033,1028 725.893,1027.49 725.274,1026.87C723.842,1025.44 715.793,1024.72 715.03,1025.95C714.687,1026.51 711.229,1026.57 706.478,1026.1C702.09,1025.67 698.275,1025.59 698,1025.91C695.415,1028.96 681.451,1029.94 672,1027.74C669.525,1027.16 660.758,1026.62 652.517,1026.53C638.279,1026.38 637.362,1026.49 634.049,1028.74C631.921,1030.19 629.739,1030.9 628.446,1030.58C627.282,1030.28 623.105,1029.74 619.165,1029.38C613.743,1028.87 612,1029.02 612,1029.96C612,1030.77 611.377,1030.95 610.25,1030.48C609.288,1030.07 604,1029.75 598.5,1029.76C593,1029.77 588.035,1029.4 587.466,1028.95C586.898,1028.49 585.824,1028.49 585.081,1028.95C584.337,1029.41 581.093,1029.55 577.872,1029.25C571.285,1028.66 560.61,1030.56 558.885,1032.64C557.935,1033.78 557.226,1033.69 554.559,1032.04C552.171,1030.56 550.406,1030.22 547.53,1030.69C544.521,1031.18 543.864,1031.03 544.494,1030.01C545.137,1028.97 544.311,1028.86 540.4,1029.48C535.061,1030.32 528.677,1030.39 522.64,1029.66C519.102,1029.23 518.382,1029.6 514.01,1033.99C511.386,1036.63 508.414,1040.18 507.404,1041.89C505.594,1044.96 504.759,1045.35 502.199,1044.32ZM259.083,535.035C257.416,531.117 255.365,526.931 254.526,525.733C252.788,523.252 252.517,521.583 254,522.5C256.044,523.763 255.304,522.13 245.216,503.112C243.409,499.707 242.176,496.525 242.475,496.041C242.774,495.557 242.339,494.482 241.509,493.652C240.679,492.822 240,491.536 240,490.794C240,488.469 236.973,485 234.943,485C233.451,485 233,485.696 233,488C233,489.65 233.401,491 233.891,491C234.38,491 234.999,492.462 235.266,494.25C236.338,501.438 238.201,509.606 239.179,511.409C239.749,512.459 241.081,516.442 242.14,520.261C244.403,528.427 247.503,534.872 249.545,535.656C250.345,535.963 251,536.82 251,537.56C251,538.3 252.569,539.339 254.487,539.869C256.405,540.398 258.748,541.605 259.693,542.55C262.534,545.391 262.309,542.616 259.083,535.035ZM277.66,480.232C278.933,479.421 279.169,477.585 279.2,468.235C279.222,461.48 278.359,459.754 273.773,457.383C264.194,452.429 261.611,468.712 270.382,478.75C272.344,480.994 275.463,481.629 277.66,480.232ZM663.553,189.914C664.308,188.693 658.267,182 656.411,182C654.028,182 654.139,185.012 656.631,187.973C659.206,191.033 662.322,191.907 663.553,189.914Z" fill-rule="evenodd" fill="#000000"/>
</g>
</svg>
